

[img]http://www.covershut.com/covers/The-Rats-2002-Front-Cover-4163.jpg[/img]


They're bold... They're breeding... They're hungry... Most of all... They have no fear.
In Manhattan, when a client is bitten by a rat in the dressing room of the Garsons Department Store and contracts Weil's disease, the manager Susan Costello is assigned to hire and give all the necessary support to the best exterminator in New York, Jack Carver. The efficient Jack and his assistant Ty find a colony of mutant rats and try to convince the health department administrator and former partner of Jack, Ray Jarrett, how serious the infestation is. But the politician Ray is interested in covering the problem to protect economical interests of powerful groups.



[url=http://www.imgboot.com/image.php?u=fasamoo&i=therats2002dvdripgogo2010060316505095.jpg][img]http://imgboot.com/images/fasamoo/therats2002dvdripgogo2010060316505095.jpg[/img][/url]
[url=http://www.imgboot.com/image.php?u=fasamoo&i=therats2002dvdripgogo2010060316510904.jpg][img]http://imgboot.com/images/fasamoo/therats2002dvdripgogo2010060316510904.jpg[/img][/url]
[url=http://www.imgboot.com/image.php?u=fasamoo&i=therats2002dvdripgogo2010060316520654.jpg][img]http://imgboot.com/images/fasamoo/therats2002dvdripgogo2010060316520654.jpg[/img][/url]
[url=http://www.imgboot.com/image.php?u=fasamoo&i=therats2002dvdripgogo2010060316562859.jpg][img]http://imgboot.com/images/fasamoo/therats2002dvdripgogo2010060316562859.jpg[/img][/url]
[url=http://www.imgboot.com/image.php?u=fasamoo&i=therats2002dvdripgogo2010060316592904.jpg][img]http://imgboot.com/images/fasamoo/therats2002dvdripgogo2010060316592904.jpg[/img][/url]




General
Complete name                    : The Rats 2002 DVDRip GoGoThe Rats 2002 DVDRip(Multisub) GoGo.avi
IMDB Link                        : http://www.imdb.com/title/tt0282418/
Format                           : AVI
Format/Info                      : Audio Video Interleave
File size                        : 700 MiB
Duration                         : 1h 33mn
Overall bit rate                 : 1 042 Kbps
Writing application              : VirtualDubMod 1.5.4.1 (build 2178/release)
Writing library                  : VirtualDubMod build 2178/release

Video
ID                               : 0
Format                           : MPEG-4 Visual
Format profile                   : Advanced Simple@L5
Format settings, BVOP            : Yes
Format settings, QPel            : No
Format settings, GMC             : No warppoints
Format settings, Matrix          : Custom
Codec ID                         : XVID
Codec ID/Hint                    : XviD
Duration                         : 1h 33mn
Bit rate                         : 917 Kbps
Width                            : 640 pixels
Height                           : 352 pixels
Display aspect ratio             : 16:9
Frame rate                       : 23.976 fps
Resolution                       : 8 bits
Colorimetry                      : 4:2:0
Scan type                        : Progressive
Bits/(Pixel*Frame)               : 0.170
Stream size                      : 616 MiB (88%)
Writing library                  : XviD 1.2.1 (UTC 2008-12-04)

Audio
ID                               : 1
Format                           : MPEG Audio
Format version                   : Version 1
Format profile                   : Layer 3
Mode                             : Joint stereo
Format_Settings_ModeExtension    : MS Stereo
Codec ID                         : 55
Codec ID/Hint                    : MP3
Duration                         : 1h 33mn
Bit rate mode                    : Variable
Bit rate                         : 112 Kbps
Nominal bit rate                 : 128 Kbps
Channel(s)                       : 2 channels
Sampling rate                    : 48.0 KHz
Stream size                      : 75.4 MiB (11%)
Alignment                        : Aligned on interleaves
Interleave, duration             : 24 ms (0.58 video frame)
Interleave, preload duration     : 564 ms
Writing library                  : LAME3.98r
Encoding settings                : -m j -V 4 -q 2 -lowpass 17 --abr 128
Language                         : English
Subtitles                        : English,Espanol(.IDX+*.SUB)
                                 : English.(.srt)
Genre                            : Horror | Thriller

[img]http://imgboot.com/images/fasamoo/pleaseseed.gif[/img] 